<?xml version="1.0" encoding="UTF-8" standalone="no"?>
<!DOCTYPE svg PUBLIC "-//W3C//DTD SVG 1.1//EN"
 "http://www.w3.org/Graphics/SVG/1.1/DTD/svg11.dtd">
<!-- Generated by graphviz version 3.0.0 (20220226.1711)
 -->
<!-- Title: dependencies Pages: 1 -->
<svg width="1644pt" height="247pt"
 viewBox="0.00 0.00 1644.00 246.80" xmlns="http://www.w3.org/2000/svg" xmlns:xlink="http://www.w3.org/1999/xlink">
<g id="graph0" class="graph" transform="scale(1 1) rotate(0) translate(4 242.8)">
<title>dependencies</title>
<polygon fill="white" stroke="transparent" points="-4,4 -4,-242.8 1640,-242.8 1640,4 -4,4"/>
<text text-anchor="middle" x="818" y="-8.2" font-family="sans-serif" font-size="14.00">dependencies</text>
<g id="clust1" class="cluster">
<title>cluster_AppModule</title>
<polygon fill="none" stroke="black" stroke-dasharray="1,5" points="8,-32.8 8,-230.8 1628,-230.8 1628,-32.8 8,-32.8"/>
</g>
<g id="clust9" class="cluster">
<title>cluster_AppModule_imports</title>
<polygon fill="none" stroke="black" points="1359,-40.8 1359,-92.8 1620,-92.8 1620,-40.8 1359,-40.8"/>
</g>
<g id="clust11" class="cluster">
<title>cluster_AppModule_bootstrap</title>
<polygon fill="none" stroke="black" points="803,-170.8 803,-222.8 927,-222.8 927,-170.8 803,-170.8"/>
</g>
<g id="clust12" class="cluster">
<title>cluster_AppModule_providers</title>
<polygon fill="none" stroke="black" points="1013,-40.8 1013,-92.8 1351,-92.8 1351,-40.8 1013,-40.8"/>
</g>
<g id="clust2" class="cluster">
<title>cluster_AppModule_declarations</title>
<polygon fill="none" stroke="black" points="16,-40.8 16,-92.8 1005,-92.8 1005,-40.8 16,-40.8"/>
</g>
<!-- AppComponent -->
<g id="node1" class="node">
<title>AppComponent</title>
<polygon fill="#ffffb3" stroke="black" points="996.94,-84.8 891.06,-84.8 891.06,-48.8 996.94,-48.8 996.94,-84.8"/>
<text text-anchor="middle" x="944" y="-62.6" font-family="Times,serif" font-size="14.00">AppComponent</text>
</g>
<!-- AppModule -->
<g id="node7" class="node">
<title>AppModule</title>
<polygon fill="#8dd3c7" stroke="black" points="906.66,-149.8 903.66,-153.8 882.66,-153.8 879.66,-149.8 823.34,-149.8 823.34,-113.8 906.66,-113.8 906.66,-149.8"/>
<text text-anchor="middle" x="865" y="-127.6" font-family="Times,serif" font-size="14.00">AppModule</text>
</g>
<!-- AppComponent&#45;&gt;AppModule -->
<g id="edge1" class="edge">
<title>AppComponent&#45;&gt;AppModule</title>
<path fill="none" stroke="black" d="M899.06,-84.91C899.06,-84.91 899.06,-103.79 899.06,-103.79"/>
<polygon fill="black" stroke="black" points="895.56,-103.79 899.06,-113.79 902.56,-103.79 895.56,-103.79"/>
</g>
<!-- ForgotPasswordComponent -->
<g id="node2" class="node">
<title>ForgotPasswordComponent</title>
<polygon fill="#ffffb3" stroke="black" points="873.34,-84.8 700.66,-84.8 700.66,-48.8 873.34,-48.8 873.34,-84.8"/>
<text text-anchor="middle" x="787" y="-62.6" font-family="Times,serif" font-size="14.00">ForgotPasswordComponent</text>
</g>
<!-- ForgotPasswordComponent&#45;&gt;AppModule -->
<g id="edge2" class="edge">
<title>ForgotPasswordComponent&#45;&gt;AppModule</title>
<path fill="none" stroke="black" d="M848.17,-84.91C848.17,-84.91 848.17,-103.79 848.17,-103.79"/>
<polygon fill="black" stroke="black" points="844.67,-103.79 848.17,-113.79 851.67,-103.79 844.67,-103.79"/>
</g>
<!-- LoginComponent -->
<g id="node3" class="node">
<title>LoginComponent</title>
<polygon fill="#ffffb3" stroke="black" points="682.27,-84.8 567.73,-84.8 567.73,-48.8 682.27,-48.8 682.27,-84.8"/>
<text text-anchor="middle" x="625" y="-62.6" font-family="Times,serif" font-size="14.00">LoginComponent</text>
</g>
<!-- LoginComponent&#45;&gt;AppModule -->
<g id="edge3" class="edge">
<title>LoginComponent&#45;&gt;AppModule</title>
<path fill="none" stroke="black" d="M625,-84.81C625,-100.85 625,-121.8 625,-121.8 625,-121.8 813.2,-121.8 813.2,-121.8"/>
<polygon fill="black" stroke="black" points="813.2,-125.3 823.2,-121.8 813.2,-118.3 813.2,-125.3"/>
</g>
<!-- NotFoundPageComponent -->
<g id="node4" class="node">
<title>NotFoundPageComponent</title>
<polygon fill="#ffffb3" stroke="black" points="549.83,-84.8 384.17,-84.8 384.17,-48.8 549.83,-48.8 549.83,-84.8"/>
<text text-anchor="middle" x="467" y="-62.6" font-family="Times,serif" font-size="14.00">NotFoundPageComponent</text>
</g>
<!-- NotFoundPageComponent&#45;&gt;AppModule -->
<g id="edge4" class="edge">
<title>NotFoundPageComponent&#45;&gt;AppModule</title>
<path fill="none" stroke="black" d="M467,-85.07C467,-103.36 467,-128.8 467,-128.8 467,-128.8 813.16,-128.8 813.16,-128.8"/>
<polygon fill="black" stroke="black" points="813.16,-132.3 823.16,-128.8 813.16,-125.3 813.16,-132.3"/>
</g>
<!-- ResetPasswordComponent -->
<g id="node5" class="node">
<title>ResetPasswordComponent</title>
<polygon fill="#ffffb3" stroke="black" points="366.1,-84.8 199.9,-84.8 199.9,-48.8 366.1,-48.8 366.1,-84.8"/>
<text text-anchor="middle" x="283" y="-62.6" font-family="Times,serif" font-size="14.00">ResetPasswordComponent</text>
</g>
<!-- ResetPasswordComponent&#45;&gt;AppModule -->
<g id="edge5" class="edge">
<title>ResetPasswordComponent&#45;&gt;AppModule</title>
<path fill="none" stroke="black" d="M283,-84.93C283,-105.37 283,-135.8 283,-135.8 283,-135.8 813.14,-135.8 813.14,-135.8"/>
<polygon fill="black" stroke="black" points="813.14,-139.3 823.14,-135.8 813.14,-132.3 813.14,-139.3"/>
</g>
<!-- ValidateCodeComponent -->
<g id="node6" class="node">
<title>ValidateCodeComponent</title>
<polygon fill="#ffffb3" stroke="black" points="182.3,-84.8 23.7,-84.8 23.7,-48.8 182.3,-48.8 182.3,-84.8"/>
<text text-anchor="middle" x="103" y="-62.6" font-family="Times,serif" font-size="14.00">ValidateCodeComponent</text>
</g>
<!-- ValidateCodeComponent&#45;&gt;AppModule -->
<g id="edge6" class="edge">
<title>ValidateCodeComponent&#45;&gt;AppModule</title>
<path fill="none" stroke="black" d="M103,-84.81C103,-107.29 103,-142.8 103,-142.8 103,-142.8 813.22,-142.8 813.22,-142.8"/>
<polygon fill="black" stroke="black" points="813.22,-146.3 823.22,-142.8 813.22,-139.3 813.22,-146.3"/>
</g>
<!-- AppComponent  -->
<g id="node10" class="node">
<title>AppComponent </title>
<polygon fill="#80b1d3" stroke="black" points="919.44,-214.8 810.56,-214.8 810.56,-178.8 919.44,-178.8 919.44,-214.8"/>
<text text-anchor="middle" x="865" y="-192.6" font-family="Times,serif" font-size="14.00">AppComponent </text>
</g>
<!-- AppModule&#45;&gt;AppComponent  -->
<g id="edge9" class="edge">
<title>AppModule&#45;&gt;AppComponent </title>
<path fill="none" stroke="black" stroke-dasharray="1,5" d="M865,-149.91C865,-149.91 865,-168.79 865,-168.79"/>
<polygon fill="black" stroke="black" points="861.5,-168.79 865,-178.79 868.5,-168.79 861.5,-168.79"/>
</g>
<!-- AppRoutingModule -->
<g id="node8" class="node">
<title>AppRoutingModule</title>
<polygon fill="#8dd3c7" stroke="black" points="1612.28,-84.8 1609.28,-88.8 1588.28,-88.8 1585.28,-84.8 1483.72,-84.8 1483.72,-48.8 1612.28,-48.8 1612.28,-84.8"/>
<text text-anchor="middle" x="1548" y="-62.6" font-family="Times,serif" font-size="14.00">AppRoutingModule</text>
</g>
<!-- AppRoutingModule&#45;&gt;AppModule -->
<g id="edge7" class="edge">
<title>AppRoutingModule&#45;&gt;AppModule</title>
<path fill="none" stroke="black" d="M1548,-84.81C1548,-107.29 1548,-142.8 1548,-142.8 1548,-142.8 916.7,-142.8 916.7,-142.8"/>
<polygon fill="black" stroke="black" points="916.7,-139.3 906.7,-142.8 916.7,-146.3 916.7,-139.3"/>
</g>
<!-- SharedModule -->
<g id="node9" class="node">
<title>SharedModule</title>
<polygon fill="#8dd3c7" stroke="black" points="1465.43,-84.8 1462.43,-88.8 1441.43,-88.8 1438.43,-84.8 1366.57,-84.8 1366.57,-48.8 1465.43,-48.8 1465.43,-84.8"/>
<text text-anchor="middle" x="1416" y="-62.6" font-family="Times,serif" font-size="14.00">SharedModule</text>
</g>
<!-- SharedModule&#45;&gt;AppModule -->
<g id="edge8" class="edge">
<title>SharedModule&#45;&gt;AppModule</title>
<path fill="none" stroke="black" d="M1416,-84.93C1416,-105.37 1416,-135.8 1416,-135.8 1416,-135.8 916.87,-135.8 916.87,-135.8"/>
<polygon fill="black" stroke="black" points="916.87,-132.3 906.87,-135.8 916.87,-139.3 916.87,-132.3"/>
</g>
<!-- ErrorInterceptor -->
<g id="node11" class="node">
<title>ErrorInterceptor</title>
<ellipse fill="#fdb462" stroke="black" cx="1269" cy="-66.8" rx="73.54" ry="18"/>
<text text-anchor="middle" x="1269" y="-62.6" font-family="Times,serif" font-size="14.00">ErrorInterceptor</text>
</g>
<!-- ErrorInterceptor&#45;&gt;AppModule -->
<g id="edge10" class="edge">
<title>ErrorInterceptor&#45;&gt;AppModule</title>
<path fill="none" stroke="black" d="M1269,-85.07C1269,-103.36 1269,-128.8 1269,-128.8 1269,-128.8 916.71,-128.8 916.71,-128.8"/>
<polygon fill="black" stroke="black" points="916.71,-125.3 906.71,-128.8 916.71,-132.3 916.71,-125.3"/>
</g>
<!-- TokenInterceptor -->
<g id="node12" class="node">
<title>TokenInterceptor</title>
<ellipse fill="#fdb462" stroke="black" cx="1099" cy="-66.8" rx="78.13" ry="18"/>
<text text-anchor="middle" x="1099" y="-62.6" font-family="Times,serif" font-size="14.00">TokenInterceptor</text>
</g>
<!-- TokenInterceptor&#45;&gt;AppModule -->
<g id="edge11" class="edge">
<title>TokenInterceptor&#45;&gt;AppModule</title>
<path fill="none" stroke="black" d="M1099,-84.81C1099,-100.85 1099,-121.8 1099,-121.8 1099,-121.8 916.83,-121.8 916.83,-121.8"/>
<polygon fill="black" stroke="black" points="916.83,-118.3 906.83,-121.8 916.83,-125.3 916.83,-118.3"/>
</g>
</g>
</svg>
